{
  "accessors": [
    {
      "bufferView": 0,
      "componentType": 5125,
      "count": 192,
      "type": "SCALAR"
    },
    {
      "bufferView": 1,
      "componentType": 5126,
      "count": 68,
      "max": [
        0.152733698487282,
        1.00000011920929,
        0.152733758091927
      ],
      "min": [
        -0.152733862400055,
        0.985858917236328,
        -0.152733772993088
      ],
      "type": "VEC3"
    },
    {
      "bufferView": 2,
      "componentType": 5126,
      "count": 68,
      "type": "VEC3"
    },
    {
      "bufferView": 3,
      "componentType": 5126,
      "count": 68,
      "type": "VEC2"
    },
    {
      "bufferView": 4,
      "componentType": 5125,
      "count": 960,
      "type": "SCALAR"
    },
    {
      "bufferView": 5,
      "componentType": 5126,
      "count": 578,
      "max": [
        0.0782872289419174,
        0.380362689495087,
        0.0782873556017876
      ],
      "min": [
        -0.0782874226570129,
        0.316545367240906,
        -0.07828738540411
      ],
      "type": "VEC3"
    },
    {
      "bufferView": 6,
      "componentType": 5126,
      "count": 578,
      "type": "VEC3"
    },
    {
      "bufferView": 7,
      "componentType": 5126,
      "count": 578,
      "type": "VEC2"
    },
    {
      "bufferView": 8,
      "componentType": 5125,
      "count": 3180,
      "type": "SCALAR"
    },
    {
      "bufferView": 9,
      "componentType": 5126,
      "count": 1264,
      "max": [
        0.0843719244003296,
        -0.80219703912735,
        0.0842947736382484
      ],
      "min": [
        -0.0840514600276947,
        -0.999999940395355,
        -0.0842948257923126
      ],
      "type": "VEC3"
    },
    {
      "bufferView": 10,
      "componentType": 5126,
      "count": 1264,
      "type": "VEC3"
    },
    {
      "bufferView": 11,
      "componentType": 5126,
      "count": 1264,
      "type": "VEC2"
    },
    {
      "bufferView": 12,
      "componentType": 5125,
      "count": 135912,
      "type": "SCALAR"
    },
    {
      "bufferView": 13,
      "componentType": 5126,
      "count": 44408,
      "max": [
        0.512334823608398,
        0.985859453678131,
        0.253588706254959
      ],
      "min": [
        -0.512334883213043,
        0.380362957715988,
        -0.253588706254959
      ],
      "type": "VEC3"
    },
    {
      "bufferView": 14,
      "componentType": 5126,
      "count": 44408,
      "type": "VEC3"
    },
    {
      "bufferView": 15,
      "componentType": 5126,
      "count": 44408,
      "type": "VEC2"
    },
    {
      "bufferView": 16,
      "componentType": 5125,
      "count": 72,
      "type": "SCALAR"
    },
    {
      "bufferView": 17,
      "componentType": 5126,
      "count": 48,
      "max": [
        0.494053602218628,
        0.970312833786011,
        0.239616960287094
      ],
      "min": [
        -0.49405363202095,
        0.398276895284653,
        -0.239616960287094
      ],
      "type": "VEC3"
    },
    {
      "bufferView": 18,
      "componentType": 5126,
      "count": 48,
      "type": "VEC3"
    },
    {
      "bufferView": 19,
      "componentType": 5126,
      "count": 48,
      "type": "VEC2"
    },
    {
      "bufferView": 20,
      "componentType": 5125,
      "count": 1152,
      "type": "SCALAR"
    },
    {
      "bufferView": 21,
      "componentType": 5126,
      "count": 480,
      "max": [
        0.0636750236153603,
        0.31708362698555,
        0.063675083220005
      ],
      "min": [
        -0.0636752098798752,
        -0.895959973335266,
        -0.063675157725811
      ],
      "type": "VEC3"
    },
    {
      "bufferView": 22,
      "componentType": 5126,
      "count": 480,
      "type": "VEC3"
    },
    {
      "bufferView": 23,
      "componentType": 5126,
      "count": 480,
      "type": "VEC2"
    },
    {
      "bufferView": 24,
      "componentType": 5125,
      "count": 3168,
      "type": "SCALAR"
    },
    {
      "bufferView": 25,
      "componentType": 5126,
      "count": 2112,
      "max": [
        0.0657540559768677,
        0.259923875331879,
        0.0657541155815125
      ],
      "min": [
        -0.0657542496919632,
        -0.790905356407166,
        -0.065754197537899
      ],
      "type": "VEC3"
    },
    {
      "bufferView": 26,
      "componentType": 5126,
      "count": 2112,
      "type": "VEC3"
    },
    {
      "bufferView": 27,
      "componentType": 5126,
      "count": 2112,
      "type": "VEC2"
    }
  ],
  "asset": {
    "generator": "Substance Painter 2019.2.3",
    "version": "2.0"
  },
  "bufferViews": [
    {
      "buffer": 0,
      "byteLength": 768,
      "target": 34963
    },
    {
      "buffer": 0,
      "byteLength": 816,
      "byteOffset": 768,
      "target": 34962
    },
    {
      "buffer": 0,
      "byteLength": 816,
      "byteOffset": 1584,
      "target": 34962
    },
    {
      "buffer": 0,
      "byteLength": 544,
      "byteOffset": 2400,
      "target": 34962
    },
    {
      "buffer": 0,
      "byteLength": 3840,
      "byteOffset": 2944,
      "target": 34963
    },
    {
      "buffer": 0,
      "byteLength": 6936,
      "byteOffset": 6784,
      "target": 34962
    },
    {
      "buffer": 0,
      "byteLength": 6936,
      "byteOffset": 13720,
      "target": 34962
    },
    {
      "buffer": 0,
      "byteLength": 4624,
      "byteOffset": 20656,
      "target": 34962
    },
    {
      "buffer": 0,
      "byteLength": 12720,
      "byteOffset": 25280,
      "target": 34963
    },
    {
      "buffer": 0,
      "byteLength": 15168,
      "byteOffset": 38000,
      "target": 34962
    },
    {
      "buffer": 0,
      "byteLength": 15168,
      "byteOffset": 53168,
      "target": 34962
    },
    {
      "buffer": 0,
      "byteLength": 10112,
      "byteOffset": 68336,
      "target": 34962
    },
    {
      "buffer": 0,
      "byteLength": 543648,
      "byteOffset": 78448,
      "target": 34963
    },
    {
      "buffer": 0,
      "byteLength": 532896,
      "byteOffset": 622096,
      "target": 34962
    },
    {
      "buffer": 0,
      "byteLength": 532896,
      "byteOffset": 1154992,
      "target": 34962
    },
    {
      "buffer": 0,
      "byteLength": 355264,
      "byteOffset": 1687888,
      "target": 34962
    },
    {
      "buffer": 0,
      "byteLength": 288,
      "byteOffset": 2043152,
      "target": 34963
    },
    {
      "buffer": 0,
      "byteLength": 576,
      "byteOffset": 2043440,
      "target": 34962
    },
    {
      "buffer": 0,
      "byteLength": 576,
      "byteOffset": 2044016,
      "target": 34962
    },
    {
      "buffer": 0,
      "byteLength": 384,
      "byteOffset": 2044592,
      "target": 34962
    },
    {
      "buffer": 0,
      "byteLength": 4608,
      "byteOffset": 2044976,
      "target": 34963
    },
    {
      "buffer": 0,
      "byteLength": 5760,
      "byteOffset": 2049584,
      "target": 34962
    },
    {
      "buffer": 0,
      "byteLength": 5760,
      "byteOffset": 2055344,
      "target": 34962
    },
    {
      "buffer": 0,
      "byteLength": 3840,
      "byteOffset": 2061104,
      "target": 34962
    },
    {
      "buffer": 0,
      "byteLength": 12672,
      "byteOffset": 2064944,
      "target": 34963
    },
    {
      "buffer": 0,
      "byteLength": 25344,
      "byteOffset": 2077616,
      "target": 34962
    },
    {
      "buffer": 0,
      "byteLength": 25344,
      "byteOffset": 2102960,
      "target": 34962
    },
    {
      "buffer": 0,
      "byteLength": 16896,
      "byteOffset": 2128304,
      "target": 34962
    }
  ],
  "buffers": [
    {
      "byteLength": 2145200,
      "uri": "mjolnir.bin"
    }
  ],
  "images": [
    {
      "uri": "blinn1_baseColor.png"
    },
    {
      "uri": "blinn1_occlusionRoughnessMetallic.png"
    },
    {
      "uri": "blinn1_normal.png"
    },
    {
      "uri": "blinn2_baseColor.png"
    },
    {
      "uri": "blinn2_occlusionRoughnessMetallic.png"
    },
    {
      "uri": "blinn2_normal.png"
    },
    {
      "uri": "blinn3_baseColor.png"
    },
    {
      "uri": "blinn3_occlusionRoughnessMetallic.png"
    },
    {
      "uri": "blinn3_normal.png"
    }
  ],
  "materials": [
    {
      "alphaMode": "OPAQUE",
      "name": "blinn1",
      "normalTexture": {
        "index": 2
      },
      "occlusionTexture": {
        "index": 1
      },
      "pbrMetallicRoughness": {
        "baseColorTexture": {
          "index": 0
        },
        "metallicRoughnessTexture": {
          "index": 1
        }
      }
    },
    {
      "alphaMode": "OPAQUE",
      "name": "blinn2",
      "normalTexture": {
        "index": 5
      },
      "occlusionTexture": {
        "index": 4
      },
      "pbrMetallicRoughness": {
        "baseColorTexture": {
          "index": 3
        },
        "metallicRoughnessTexture": {
          "index": 4
        }
      }
    },
    {
      "alphaMode": "OPAQUE",
      "name": "blinn3",
      "normalTexture": {
        "index": 8
      },
      "occlusionTexture": {
        "index": 7
      },
      "pbrMetallicRoughness": {
        "baseColorTexture": {
          "index": 6
        },
        "metallicRoughnessTexture": {
          "index": 7
        }
      }
    }
  ],
  "meshes": [
    {
      "name": "pCylinder1",
      "primitives": [
        {
          "attributes": {
            "NORMAL": 2,
            "POSITION": 1,
            "TEXCOORD_0": 3
          },
          "indices": 0,
          "material": 0,
          "mode": 4
        }
      ]
    },
    {
      "name": "pCylinder7",
      "primitives": [
        {
          "attributes": {
            "NORMAL": 6,
            "POSITION": 5,
            "TEXCOORD_0": 7
          },
          "indices": 4,
          "material": 0,
          "mode": 4
        }
      ]
    },
    {
      "name": "pCylinder59",
      "primitives": [
        {
          "attributes": {
            "NORMAL": 10,
            "POSITION": 9,
            "TEXCOORD_0": 11
          },
          "indices": 8,
          "material": 0,
          "mode": 4
        }
      ]
    },
    {
      "name": "pCube71",
      "primitives": [
        {
          "attributes": {
            "NORMAL": 14,
            "POSITION": 13,
            "TEXCOORD_0": 15
          },
          "indices": 12,
          "material": 0,
          "mode": 4
        }
      ]
    },
    {
      "name": "pCube71",
      "primitives": [
        {
          "attributes": {
            "NORMAL": 18,
            "POSITION": 17,
            "TEXCOORD_0": 19
          },
          "indices": 16,
          "material": 2,
          "mode": 4
        }
      ]
    },
    {
      "name": "pCylinder60",
      "primitives": [
        {
          "attributes": {
            "NORMAL": 22,
            "POSITION": 21,
            "TEXCOORD_0": 23
          },
          "indices": 20,
          "material": 1,
          "mode": 4
        }
      ]
    },
    {
      "name": "pCylinder60",
      "primitives": [
        {
          "attributes": {
            "NORMAL": 26,
            "POSITION": 25,
            "TEXCOORD_0": 27
          },
          "indices": 24,
          "material": 0,
          "mode": 4
        }
      ]
    }
  ],
  "nodes": [
    {
      "children": [
        1,
        3,
        5,
        7,
        9,
        11,
        13
      ],
      "name": "root",
      "scale": [
        27.8448066711426,
        27.8448066711426,
        27.8448066711426
      ],
      "translation": [
        -0.00949192047119141,
        43.2092208862305,
        4.76837158203125e-07
      ]
    },
    {
      "children": [
        2
      ],
      "name": "pCylinder1"
    },
    {
      "mesh": 0,
      "name": "pCylinder1"
    },
    {
      "children": [
        4
      ],
      "name": "pCylinder7"
    },
    {
      "mesh": 1,
      "name": "pCylinder7"
    },
    {
      "children": [
        6
      ],
      "name": "pCylinder59"
    },
    {
      "mesh": 2,
      "name": "pCylinder59"
    },
    {
      "children": [
        8
      ],
      "name": "pCube71"
    },
    {
      "mesh": 3,
      "name": "pCube71"
    },
    {
      "children": [
        10
      ],
      "name": "pCube71"
    },
    {
      "mesh": 4,
      "name": "pCube71"
    },
    {
      "children": [
        12
      ],
      "name": "pCylinder60"
    },
    {
      "mesh": 5,
      "name": "pCylinder60"
    },
    {
      "children": [
        14
      ],
      "name": "pCylinder60"
    },
    {
      "mesh": 6,
      "name": "pCylinder60"
    }
  ],
  "samplers": [
    {
      "magFilter": 9729,
      "minFilter": 9985,
      "wrapS": 10497,
      "wrapT": 10497
    }
  ],
  "scene": 0,
  "scenes": [
    {
      "name": "Scene",
      "nodes": [
        0
      ]
    }
  ],
  "textures": [
    {
      "sampler": 0,
      "source": 0
    },
    {
      "sampler": 0,
      "source": 1
    },
    {
      "sampler": 0,
      "source": 2
    },
    {
      "sampler": 0,
      "source": 3
    },
    {
      "sampler": 0,
      "source": 4
    },
    {
      "sampler": 0,
      "source": 5
    },
    {
      "sampler": 0,
      "source": 6
    },
    {
      "sampler": 0,
      "source": 7
    },
    {
      "sampler": 0,
      "source": 8
    }
  ]
}